<?xml version="1.0" standalone="no"?>
<!DOCTYPE svg PUBLIC "-//W3C//DTD SVG 20010904//EN"
 "http://www.w3.org/TR/2001/REC-SVG-20010904/DTD/svg10.dtd">
<svg version="1.0" xmlns="http://www.w3.org/2000/svg"
 width="700.000000pt" height="700.000000pt" viewBox="0 0 700.000000 700.000000"
 preserveAspectRatio="xMidYMid meet">
<metadata>
Created by potrace 1.14, written by Peter Selinger 2001-2017
</metadata>
<g transform="translate(0.000000,700.000000) scale(0.100000,-0.100000)"
fill="#000000" stroke="none">
<path d="M2354 5366 c-354 -67 -525 -292 -592 -775 -15 -113 -17 -235 -17
-1201 0 -1128 1 -1163 46 -1380 68 -332 212 -532 442 -611 158 -55 379 -60
539 -13 235 69 388 265 452 578 37 178 47 304 53 664 l6 362 -232 0 -231 0 0
-297 c0 -656 -45 -862 -202 -928 -61 -25 -164 -20 -227 11 -97 49 -139 140
-169 364 -14 109 -16 263 -17 1230 0 1013 1 1114 18 1218 35 221 80 315 177
365 50 26 62 28 141 25 97 -3 140 -24 183 -89 67 -100 87 -251 93 -706 l5
-373 225 0 225 0 -5 388 c-5 404 -12 487 -58 667 -65 259 -223 429 -454 491
-83 22 -309 27 -401 10z"/>
<path d="M3840 3369 l0 -1970 473 4 c525 4 543 6 687 74 148 70 255 214 314
425 95 333 92 982 -5 1278 -51 156 -140 280 -237 329 -23 12 -42 23 -42 26 0
2 13 11 28 19 39 20 104 87 141 144 39 62 75 175 98 308 25 153 26 623 0 766
-56 316 -169 459 -420 528 -115 32 -244 39 -654 40 l-383 0 0 -1971z m853
1566 c90 -33 135 -113 158 -282 17 -130 6 -677 -15 -763 -24 -95 -57 -144
-113 -171 -45 -22 -60 -24 -233 -24 l-185 0 -3 634 -2 633 172 -4 c130 -4 185
-10 221 -23z m-4 -1606 c115 -24 174 -109 208 -294 15 -84 18 -157 18 -455 0
-374 -9 -491 -47 -604 -30 -91 -69 -140 -135 -173 -57 -27 -60 -28 -243 -28
l-185 0 -3 783 -2 782 169 0 c94 0 193 -5 220 -11z"/>
</g>
</svg>
